<mxfile host="app.diagrams.net" modified="2021-05-31T23:42:11.826Z" agent="5.0 (Windows NT 10.0; Win64; x64) AppleWebKit/537.36 (KHTML, like Gecko) Chrome/91.0.4472.77 Safari/537.36" etag="FwEjrwwayEVmGXfVHyGh" version="14.7.3" type="github">
  <diagram id="vbi7nE3dzQboV_EjsajQ" name="第 1 页">
    <mxGraphModel dx="782" dy="393" grid="1" gridSize="10" guides="1" tooltips="1" connect="1" arrows="1" fold="1" page="1" pageScale="1" pageWidth="850" pageHeight="1100" math="0" shadow="0">
      <root>
        <mxCell id="0" />
        <mxCell id="1" parent="0" />
        <mxCell id="9pZoL8t0_pukpKfw8_Pr-1" value="教师" style="rounded=1;whiteSpace=wrap;html=1;fillColor=#CCE5FF;" parent="1" vertex="1">
          <mxGeometry x="130" y="270" width="80" height="50" as="geometry" />
        </mxCell>
        <mxCell id="9pZoL8t0_pukpKfw8_Pr-2" value="学生" style="rounded=1;whiteSpace=wrap;html=1;fillColor=none;" parent="1" vertex="1">
          <mxGeometry x="130" y="400" width="80" height="50" as="geometry" />
        </mxCell>
        <mxCell id="9pZoL8t0_pukpKfw8_Pr-3" value="" style="shape=flexArrow;endArrow=classic;html=1;gradientColor=#FF0000;gradientDirection=north;" parent="1" edge="1">
          <mxGeometry width="50" height="50" relative="1" as="geometry">
            <mxPoint x="170" y="322" as="sourcePoint" />
            <mxPoint x="170" y="400" as="targetPoint" />
          </mxGeometry>
        </mxCell>
        <mxCell id="9pZoL8t0_pukpKfw8_Pr-4" value="教师" style="rounded=1;whiteSpace=wrap;html=1;fillColor=none;" parent="1" vertex="1">
          <mxGeometry x="240" y="270" width="80" height="50" as="geometry" />
        </mxCell>
        <mxCell id="9pZoL8t0_pukpKfw8_Pr-5" value="学生" style="rounded=1;whiteSpace=wrap;html=1;fillColor=none;" parent="1" vertex="1">
          <mxGeometry x="240" y="400" width="80" height="50" as="geometry" />
        </mxCell>
        <mxCell id="9pZoL8t0_pukpKfw8_Pr-6" value="" style="shape=flexArrow;endArrow=classic;html=1;gradientColor=#FF0000;gradientDirection=north;" parent="1" edge="1">
          <mxGeometry width="50" height="50" relative="1" as="geometry">
            <mxPoint x="280" y="322" as="sourcePoint" />
            <mxPoint x="280" y="400" as="targetPoint" />
          </mxGeometry>
        </mxCell>
        <mxCell id="9pZoL8t0_pukpKfw8_Pr-7" value="教师/学生" style="rounded=1;whiteSpace=wrap;html=1;gradientColor=#FFE599;gradientDirection=north;fillColor=none;" parent="1" vertex="1">
          <mxGeometry x="350" y="330" width="80" height="50" as="geometry" />
        </mxCell>
        <mxCell id="9pZoL8t0_pukpKfw8_Pr-10" value="离线蒸馏" style="text;html=1;strokeColor=none;align=center;verticalAlign=middle;whiteSpace=wrap;rounded=0;fontStyle=1;fontSize=13;" parent="1" vertex="1">
          <mxGeometry x="130" y="350" width="70" height="20" as="geometry" />
        </mxCell>
        <mxCell id="9pZoL8t0_pukpKfw8_Pr-13" value="在线蒸馏" style="text;html=1;strokeColor=none;align=center;verticalAlign=middle;whiteSpace=wrap;rounded=0;fontStyle=1;fontSize=13;" parent="1" vertex="1">
          <mxGeometry x="240" y="350" width="67.5" height="20" as="geometry" />
        </mxCell>
        <mxCell id="9pZoL8t0_pukpKfw8_Pr-17" style="edgeStyle=orthogonalEdgeStyle;orthogonalLoop=1;jettySize=auto;html=1;exitX=1;exitY=0.5;exitDx=0;exitDy=0;entryX=0.5;entryY=0;entryDx=0;entryDy=0;gradientColor=#FF0000;fontSize=11;rounded=1;gradientDirection=south;shape=flexArrow;" parent="1" source="9pZoL8t0_pukpKfw8_Pr-7" target="9pZoL8t0_pukpKfw8_Pr-7" edge="1">
          <mxGeometry relative="1" as="geometry">
            <Array as="points">
              <mxPoint x="470" y="355" />
              <mxPoint x="470" y="300" />
              <mxPoint x="390" y="300" />
            </Array>
          </mxGeometry>
        </mxCell>
        <mxCell id="9pZoL8t0_pukpKfw8_Pr-18" value="" style="rounded=1;whiteSpace=wrap;html=1;fontSize=13;fillColor=none;" parent="1" vertex="1">
          <mxGeometry x="350" y="400" width="30" height="20" as="geometry" />
        </mxCell>
        <mxCell id="9pZoL8t0_pukpKfw8_Pr-19" value="待训练" style="text;html=1;strokeColor=none;align=center;verticalAlign=middle;whiteSpace=wrap;rounded=0;fontSize=13;" parent="1" vertex="1">
          <mxGeometry x="400" y="400" width="50" height="20" as="geometry" />
        </mxCell>
        <mxCell id="9pZoL8t0_pukpKfw8_Pr-20" value="" style="rounded=1;whiteSpace=wrap;html=1;fontSize=13;fillColor=#CCE5FF;" parent="1" vertex="1">
          <mxGeometry x="350" y="430" width="30" height="20" as="geometry" />
        </mxCell>
        <mxCell id="9pZoL8t0_pukpKfw8_Pr-21" value="预训练" style="text;html=1;strokeColor=none;align=center;verticalAlign=middle;whiteSpace=wrap;rounded=0;fontSize=13;" parent="1" vertex="1">
          <mxGeometry x="400" y="430" width="50" height="20" as="geometry" />
        </mxCell>
      </root>
    </mxGraphModel>
  </diagram>
</mxfile>
